<svg xmlns="http://www.w3.org/2000/svg" xmlns:xlink="http://www.w3.org/1999/xlink" id="Ebene_1" x="0px" y="0px" viewBox="0 0 287.6 73.2" style="enable-background:new 0 0 287.6 73.2;" xml:space="preserve"><style type="text/css">	.st0{fill:#FFFFFF;}</style><path class="st0" d="M16.8,54.9C6.5,54.9,0,48.3,0,38c0-10.6,7.4-18.1,17.9-18.1c3.8,0,5.9,0.7,9.7,3.4l-4,4.4c-0.8-0.8-1.4-1.4-2-2 c-3.5-3.2-9.1-2.8-12.2,0.8c0,0,0,0.1-0.1,0.1c-2.2,2.7-3.4,5.9-3.4,9.7c0,8.2,5.6,15,12.5,15c2.3,0,4.2-0.6,8.2-2.6l1.5,2.8 C23.4,54.2,21.4,54.9,16.8,54.9"></path><path class="st0" d="M47.6,22.9c-5.5,0-9.7,6.3-9.7,14.4s4.3,14.4,9.7,14.4c5.5,0,9.8-6.3,9.8-14.4C57.5,29.2,53.1,22.9,47.6,22.9  M47.6,54.9c-8.9,0-16.1-7.8-16.1-17.5s7.2-17.5,16.1-17.5s16.1,7.8,16.1,17.5S56.5,54.9,47.6,54.9"></path><path class="st0" d="M112.8,53.9v-2.7h5.6V29.7c0-4-2-6.2-5.2-6.2c-2.4,0-4.3,1.1-7.5,4.5l-3.9,4.2v19.1h5.5V54H90.7v-2.7h5.5V29.7 c0-3.9-2-6.3-5.2-6.3s-5,1.4-11.4,8.7v19.1h5.6v2.7H68.6v-2.7h5.6V24.8h-6.4v-2L78.4,20h1.3v8.2c5.5-6.4,8.6-8.4,13.3-8.4 c5.2,0,8.1,2.7,8.8,8.4c5.5-6.4,8.6-8.4,13.3-8.4c5.4,0,8.8,3.5,8.8,9.1v22.3h5.5v2.7H112.8z"></path><path class="st0" d="M278.7,54.7c-2.3,0-4.3-1.9-4.3-4.3c0-2.3,2-4.3,4.3-4.3s4.3,1.9,4.3,4.3S281,54.7,278.7,54.7"></path><path class="st0" d="M152.3,24.5c-2.9,0-4.8,1-8.1,4.3v16.9c0,4.5,1.5,6.2,5.7,6.2c7,0,11.7-5.8,11.7-14.4 C161.6,29.5,158,24.5,152.3,24.5 M150.7,54.9c-2.8,0-3.9-0.4-6.5-1.8v17.3h6.7v2.7h-17.7v-2.7h5.6V24.8h-6.5v-2.1l10.6-2.8h1.4V25 c3.7-3.8,6.5-5.1,10.7-5.1c7.8,0,13,6.5,13,16C167.9,46.9,160.7,54.9,150.7,54.9"></path><path class="st0" d="M195.8,30.5c0-4.4-3-7.5-7.3-7.5c-5.4,0-9.1,3.6-9.7,9.3h17V30.5z M178.8,35.2V36c0,9.2,4.8,15.5,11.8,15.5 c2.9,0,4.9-0.7,9-3.4l1.4,2.7c-5.5,3.1-8.1,4-12.3,4c-9.3,0-15.9-7.2-15.9-17.3c0-10.3,6.7-17.7,15.8-17.7c7.9,0,13.3,5.4,13.3,13.3 v2h-23.1V35.2z"></path><polygon class="st0" points="268.2,51.2 268.2,53.9 254.3,53.9 254.3,51.2 258.5,51.2 251.4,40.4 243.2,51.2 247.5,51.2 247.5,53.9  222.3,53.9 222.3,51.2 226.5,51.2 219.4,40.4 211.2,51.2 215.5,51.2 215.5,53.9 204.1,53.9 204.1,51.2 207.2,51.2 217.6,37.8  207.9,23.4 204.9,23.4 204.9,20.7 219,20.7 219,23.4 214.5,23.4 221.1,33.6 228.6,23.4 225.1,23.4 225.1,20.7 235.6,20.7  235.6,23.4 232.6,23.4 222.7,36 233.1,51.2 239.2,51.2 249.6,37.8 240,23.4 236.9,23.4 236.9,20.7 251,20.7 251,23.4 246.5,23.4  253.1,33.6 260.6,23.4 257.1,23.4 257.1,20.7 267.7,20.7 267.7,23.4 264.6,23.4 254.8,36 265.1,51.2 "></polygon><polygon class="st0" points="3.1,60.6 3.1,73.1 4.6,73.1 4.6,67.5 9.2,67.5 9.2,66.2 4.6,66.2 4.6,61.9 10.1,61.9 10.1,60.6 "></polygon><rect x="24.8" y="60.6" class="st0" width="1.6" height="12.5"></rect><path class="st0" d="M50.7,73.2l-6.3-9.8c-0.1-0.1-0.2-0.2-0.2-0.4c-0.1-0.1-0.1-0.2-0.2-0.3c-0.1-0.1-0.1-0.2-0.2-0.5v10.9h-1.6 V60.6h2l6.2,9.6c0.1,0.1,0.1,0.2,0.2,0.3c0.1,0.2,0.1,0.2,0.2,0.6c0,0,0,0.1,0.1,0.2V60.6h1.6v12.7L50.7,73.2L50.7,73.2z"></path><path class="st0" d="M72,62.3l2,5.7h-4L72,62.3z M71.2,60.2l-4.7,12.9h1.7l1.3-3.7h5.1l1.3,3.7h1.7l-4.7-12.9 C72.9,60.2,71.2,60.2,71.2,60.2z"></path><path class="st0" d="M100,73.2l-6.3-9.8c-0.1-0.1-0.1-0.2-0.2-0.4c-0.1-0.1-0.1-0.2-0.2-0.3s-0.1-0.2-0.2-0.5v10.9h-1.6V60.6h2 l6.2,9.6c0.1,0.1,0.1,0.2,0.2,0.3c0.1,0.2,0.1,0.2,0.2,0.6c0,0,0,0.1,0.1,0.2V60.6h1.6v12.7L100,73.2L100,73.2z"></path><polygon class="st0" points="116.4,60.6 116.4,61.9 123.7,61.9 116.4,72.4 116.4,73.1 126.1,73.1 126.1,71.8 118.5,71.8 125.8,61.4  125.8,60.6 "></polygon><path class="st0" d="M281.9,41.4c20.6-65.6-149.7-25.8-149.7-25.8v-2c0,0,185.2-44.9,151.2,28.4L281.9,41.4z"></path></svg>